<?xml version="1.0" encoding="utf-8"?>
<!-- Generator: Adobe Illustrator 19.1.0, SVG Export Plug-In . SVG Version: 6.00 Build 0)  -->
<svg version="1.1" id="Layer_1" xmlns="http://www.w3.org/2000/svg" xmlns:xlink="http://www.w3.org/1999/xlink" x="0px" y="0px"
	 viewBox="-387 389 24 24" style="enable-background:new -387 389 24 24;" xml:space="preserve">
<path d="M-364.5,393.8c-0.7-0.7-1.8-0.8-2.4-0.9c-0.1-0.6-0.3-1.7-1-2.4c-1.1-1.1-2.9-1.1-3.9,0c-1.3,1.3-1.4,4.1-1.4,4.8l-7.6,7.6
	c-0.7,0-3.5,0.2-4.8,1.5c-1.1,1.1-1,2.8,0,3.9c0.7,0.7,1.7,0.8,2.3,0.9c0.1,0.6,0.3,1.8,1,2.4c0.5,0.5,1.2,0.8,2,0.8
	c0.7,0,1.4-0.3,1.9-0.8c1.3-1.3,1.4-4,1.4-4.7l7.7-7.7c0.7,0,3.5-0.2,4.8-1.5C-363.4,396.6-363.4,394.9-364.5,393.8z M-368.9,398.3
	c0,0,0.1,0,0.3,0C-368.7,398.3-368.8,398.3-368.9,398.3L-368.9,398.3z"/>
</svg>
