<?xml version="1.0" encoding="utf-8"?>
<!-- Generator: Adobe Illustrator 19.1.0, SVG Export Plug-In . SVG Version: 6.00 Build 0)  -->
<svg version="1.1" id="Camada_1" xmlns="http://www.w3.org/2000/svg" xmlns:xlink="http://www.w3.org/1999/xlink" x="0px" y="0px"
	 viewBox="-194 353 382 96" style="enable-background:new -194 353 382 96;" xml:space="preserve">
<style type="text/css">
	.st0{fill:#4680FF;}
	.st1{display:none;}
	.st2{display:inline;}
	.st3{fill:#41AA31;}
	.st4{display:inline;fill:#41AA31;}
</style>
<g>
	<g>
		<path class="st0" d="M-143.9,428.9c-2.6,3.5-5.7,6.2-9.4,8.1c-3.7,1.9-7.8,2.8-12.1,2.8c-2.3,0-4.4-0.2-6.3-0.7
			c-1.9-0.5-4.1-1.4-6.5-2.7c-1.1-1-1.5-1.7-1.2-2.2c0.3-0.5,0.4-0.8,0.3-1l-0.1,4.5c-0.7,3.5-2.8,5.1-6.5,4.8
			c-3.6-0.3-5.5-1.9-5.7-4.8v-72.5c0.8-4,2.9-5.9,6.4-5.7c3.5,0.2,5.4,2.1,5.8,5.7V395c6-2.4,11-3.5,15.2-3.5
			c6.3,0,11.3,1.6,14.9,4.7c3.6,3.2,6,6.3,7.2,9.3c1.2,3.1,1.8,6.2,1.8,9.6C-140.2,419.8-141.5,424.4-143.9,428.9z M-155,422.8
			c1-1.8,1.6-4,1.6-6.6c0-3.6-1.1-6.8-3.2-9.4c-2.2-2.7-5.1-4-8.7-4c-5.1,0.1-8.6,1.4-10.7,3.9c-2.1,2.5-3.1,5.6-3.1,9.2
			c0,3.1,0.8,5.8,2.5,8.2c1.7,2.4,3.6,3.9,5.8,4.5c2.2,0.6,3.8,0.9,4.7,0.9c2.4,0,4.4-0.6,6.2-1.8
			C-158.3,426.5-156.6,424.9-155,422.8z"/>
		<g>
			<path class="st0" d="M-124.4,437.9c-0.6,3.5-2.8,5.1-6.6,4.9c-3.9-0.2-6-2-6.3-5.1v-46.3c0.7-3.9,2.8-5.9,6.4-5.8
				c3.5,0.1,5.7,1.8,6.6,5.3L-124.4,437.9L-124.4,437.9z"/>
			<circle class="st0" cx="-131.4" cy="377.5" r="6.8"/>
		</g>
		<path class="st0" d="M-75.7,437.7c-3.2,2.4-6,3.7-8.6,4.1c-2.6,0.4-6.3,0.6-11.1,0.6c-5.4,0-10.2-1.2-14.4-3.6
			c-4.2-2.4-7.5-6.3-9.6-11.6c-1.5-4.6-2.2-8.9-2.2-13.1s0.6-8,2-11.8c1.2-3.7,3.3-6.9,6.2-9.6c2.8-2.7,6-4.6,9.6-5.6
			c3.6-1,7.3-1.7,11.2-1.7c4.6,0,9.7,1.7,15.3,4.9c4.4,3,5.5,6.2,3.4,9.6c-2,3.4-4.9,4-8.6,1.8c-3.5-1.6-5.7-2.5-6.6-2.7
			c-0.8-0.2-2.3-0.3-4.4-0.3c-2.3,0-4.4,0.3-6.2,1s-3.4,1.8-4.7,3.1c-2.9,3.6-4.4,7.6-4.4,11.6c0,3.2,0.6,5.9,1.8,8.1
			c1.1,2.1,2.6,3.6,4.5,4.6c2.7,2,5.7,2.9,8.7,2.9c2.2,0,4.4-0.4,6.4-1.2c2.3-0.9,4.1-1.8,5.7-2.5c3.9-1.9,6.8-1.2,8.5,1.9
			C-71.5,431.3-72.2,434.6-75.7,437.7z"/>
		<path class="st0" d="M-27.9,437.4c-0.8,3.1-3,4.7-6.3,4.8c-3.4,0.1-5.5-1.5-6.3-4.8v-26.7c-0.4-2.5-1.3-4.5-2.6-6
			c-1.3-1.6-3.2-2.3-5.6-2.2c-3.1,0.5-5.3,1.5-6.5,3.1c-1.4,1.6-2.2,3.5-2.6,5.8v26c-0.8,3.2-3,4.7-6.4,4.6s-5.5-1.7-5.8-4.6v-72.1
			c0.3-4,2.4-5.9,6-6c3.7-0.1,5.7,1.9,6,6v31.2c0-0.8,1.2-1.8,3.5-3c2.4-1.2,5.1-1.8,8.2-1.8c5.2,0,9.9,1.8,14.3,5.5
			c2.7,3.5,4.1,7.6,4.1,12.3v27.9H-27.9z"/>
		<g>
			<path class="st0" d="M-12.5,437.9c-0.6,3.5-2.8,5.1-6.6,4.9c-3.9-0.2-6-2-6.3-5.1v-46.3c0.7-3.9,2.8-5.9,6.4-5.8
				c3.5,0.1,5.7,1.8,6.6,5.3L-12.5,437.9L-12.5,437.9z"/>
			<circle class="st0" cx="-17.8" cy="377.5" r="6.8"/>
		</g>
		<path class="st0" d="M38.8,437.4c-0.8,3.2-3.1,4.7-7,4.6c-3.9-0.1-6-1.7-6.1-4.7v-30.8c-0.9-1.5-2.3-2.8-4.3-4
			c-2-1.1-4.2-1.7-6.5-1.7c-1.4,0-2.8,0.2-4.2,0.6c-1.8,0.8-3.5,1.8-5,2.9c-1.5,1.1-2.6,2.4-3.2,3.5v29.4c-1.4,3.8-3.7,5.4-6.8,5
			s-4.9-2.1-5.3-5v-45.1c0.3-4.4,2.5-6.6,6.4-6.7s5.8,2.2,5.5,6.7v3.6c-1,0.9,0.2,0.1,3.9-2.4c3.6-2.5,7.7-3.7,12-3.7
			c5.7,0,10.4,1.5,14.1,4.4c3.7,3,6,7,6.6,12.2L38.8,437.4L38.8,437.4z"/>
		<path class="st0" d="M84,437.4c-0.8,3.1-3,4.7-6.3,4.8c-3.4,0.1-5.5-1.5-6.3-4.8v-26.7c-0.4-2.5-1.3-4.5-2.6-6s-3.2-2.3-5.6-2.2
			c-3.1,0.5-5.3,1.5-6.5,3.1c-1.4,1.6-2.2,3.5-2.6,5.8v26c-0.8,3.2-3,4.7-6.4,4.6c-3.5-0.1-5.5-1.7-5.8-4.6v-72.1c0.3-4,2.4-5.9,6-6
			c3.7-0.1,5.7,1.9,6,6v31.2c0-0.8,1.2-1.8,3.5-3c2.4-1.2,5.1-1.8,8.2-1.8c5.2,0,9.9,1.8,14.3,5.5c2.7,3.5,4.1,7.6,4.1,12.3v27.9H84
			z"/>
		<path class="st0" d="M184.5,395.4c0.3,0.4,0.5,0.8,0.6,1.2c0.8,3.6,0,6.2-2.6,7.5c-2.6,1.3-5.4,1-8.5-1c-0.3-0.2-0.5-0.4-0.7-0.7
			c-1.5-1.8-3.1-3.2-4.9-4.1c-1.9-1-4-1.5-6.4-1.5c-1.6,0-2.9,0.3-4,0.8c-1,0.5-1.7,1.2-1.9,2c-0.2,0.8-0.4,1.4-0.4,1.9
			c0,0.9,0.6,1.8,1.8,2.7c0.3,0.2,0.6,0.3,0.9,0.5l16.9,5.9c3.1,1.2,5.4,3,7.1,5.6c1.7,2.5,2.6,5.3,2.6,8.4c0,3.5-1.1,7-3.4,10.3
			c-2.2,3.2-5.2,5.4-9.1,6.3c-0.2,0-0.4,0.1-0.6,0.1c-1.4,0.1-2.9,0.3-4.3,0.5c-1.6,0.2-3.1,0.3-4.5,0.3c-4.7,0-9.1-0.8-13.1-2.3
			c-3.9-1.4-7.4-4.3-10.6-8.5c-0.2-0.3-0.4-0.7-0.6-1.1c-1-3.4-0.4-6.2,2.2-8.3c2.5-2.1,5.7-1.6,9.6,1.4c0.2,0.1,0.4,0.3,0.5,0.5
			c1.9,2.3,3.8,4,5.6,5.1c1.9,1.2,3.7,1.7,5.5,1.4c3.1,0,5.1-0.3,6.1-1c0.6-0.4,1.2-1,1.6-1.8c0.7-1.2,0.5-2.7-0.4-3.8c0,0,0,0,0,0
			c-0.7-0.9-1.6-1.5-3-2c-3.5-0.9-7.2-2.3-11-4.1c-3.7-1.7-7-3.5-9.8-5.3c-0.3-0.2-0.5-0.4-0.8-0.7c-2.5-2.9-3.8-6.1-3.8-9.6
			c0-5.5,1.9-9.5,5.7-12.1c3.8-2.6,7-4.1,9.7-4.6c2.6-0.5,5.7-0.7,9.1-0.7c0.1,0,0.3,0,0.4,0c4.4,0.4,7.9,1.5,10.7,3.2
			C179.4,389.5,182,392,184.5,395.4z"/>
		<g>
			<path class="st0" d="M128.2,394.5c-5-5.8-10.9-8.7-17.8-8.7c-6.6,0-12.3,2.9-16.9,8.8c-4.6,5.9-7,12.7-7,20.3
				c0,8.2,2.5,14.8,7.2,19.9c4.7,5,10.6,7.6,17.3,7.6c6.6,0,12.4-2.5,17.3-7.6c4.9-5,7.4-11.7,7.4-19.8
				C135.6,407.2,133.1,400.3,128.2,394.5z"/>
			<g>
				<ellipse class="st0" cx="120" cy="371.7" rx="8.7" ry="9.8"/>
				<ellipse class="st0" cx="134.4" cy="385.5" rx="8.7" ry="9.8"/>
				<ellipse class="st0" cx="86.7" cy="386.5" rx="8.7" ry="9.8"/>
				<ellipse class="st0" cx="101" cy="372.7" rx="8.7" ry="9.8"/>
			</g>
		</g>
	</g>
</g>
<g class="st1">
	<g class="st2">
		<circle class="st3" cx="-142.9" cy="425.4" r="1.4"/>
		<circle class="st3" cx="-127.2" cy="425.6" r="1.4"/>
		<circle class="st3" cx="-75.8" cy="425.4" r="1.4"/>
		<circle class="st3" cx="-31" cy="425.4" r="1.4"/>
		<circle class="st3" cx="-15.2" cy="425.4" r="1.4"/>
		<circle class="st3" cx="36" cy="425.4" r="1.4"/>
	</g>
	<circle class="st4" cx="80.9" cy="425.4" r="1.4"/>
	<circle class="st4" cx="132.7" cy="425.4" r="1.4"/>
</g>
</svg>
